<mxfile host="app.diagrams.net" modified="2022-10-24T08:53:49.969Z" agent="5.0 (Macintosh; Intel Mac OS X 10_15_7) AppleWebKit/605.1.15 (KHTML, like Gecko) Version/16.1 Safari/605.1.15" etag="KXVu3g2rjd2AZwMgmDEg" version="20.5.1" type="github">
  <diagram name="Page-1" id="13e1069c-82ec-6db2-03f1-153e76fe0fe0">
    <mxGraphModel dx="1474" dy="825" grid="1" gridSize="10" guides="1" tooltips="1" connect="1" arrows="1" fold="1" page="1" pageScale="1" pageWidth="1100" pageHeight="850" background="none" math="0" shadow="0">
      <root>
        <mxCell id="0" />
        <mxCell id="1" parent="0" />
        <mxCell id="7baba1c4bc27f4b0-8" value="Юзер" style="shape=umlLifeline;perimeter=lifelinePerimeter;whiteSpace=wrap;html=1;container=1;collapsible=0;recursiveResize=0;outlineConnect=0;rounded=1;shadow=0;comic=0;labelBackgroundColor=none;strokeWidth=1;fontFamily=Verdana;fontSize=12;align=center;" parent="1" vertex="1">
          <mxGeometry x="230" y="135" width="100" height="580" as="geometry" />
        </mxCell>
        <mxCell id="7baba1c4bc27f4b0-9" value="" style="html=1;points=[];perimeter=orthogonalPerimeter;rounded=0;shadow=0;comic=0;labelBackgroundColor=none;strokeWidth=1;fontFamily=Verdana;fontSize=12;align=center;" parent="7baba1c4bc27f4b0-8" vertex="1">
          <mxGeometry x="45" y="100" width="10" height="440" as="geometry" />
        </mxCell>
        <mxCell id="8wXhOOn2XCtuKgBWBWJ--1" value="Приложение" style="shape=umlLifeline;perimeter=lifelinePerimeter;whiteSpace=wrap;html=1;container=1;collapsible=0;recursiveResize=0;outlineConnect=0;rounded=1;shadow=0;comic=0;labelBackgroundColor=none;strokeWidth=1;fontFamily=Verdana;fontSize=12;align=center;" vertex="1" parent="1">
          <mxGeometry x="410" y="135" width="100" height="580" as="geometry" />
        </mxCell>
        <mxCell id="8wXhOOn2XCtuKgBWBWJ--2" value="" style="html=1;points=[];perimeter=orthogonalPerimeter;rounded=0;shadow=0;comic=0;labelBackgroundColor=none;strokeWidth=1;fontFamily=Verdana;fontSize=12;align=center;" vertex="1" parent="8wXhOOn2XCtuKgBWBWJ--1">
          <mxGeometry x="45" y="100" width="10" height="440" as="geometry" />
        </mxCell>
        <mxCell id="8wXhOOn2XCtuKgBWBWJ--15" value="" style="endArrow=classic;html=1;rounded=0;" edge="1" parent="8wXhOOn2XCtuKgBWBWJ--1" target="8wXhOOn2XCtuKgBWBWJ--26">
          <mxGeometry width="50" height="50" relative="1" as="geometry">
            <mxPoint x="-125.5" y="260" as="sourcePoint" />
            <mxPoint x="40" y="260" as="targetPoint" />
          </mxGeometry>
        </mxCell>
        <mxCell id="8wXhOOn2XCtuKgBWBWJ--16" value="Заказ" style="edgeLabel;html=1;align=center;verticalAlign=middle;resizable=0;points=[];" vertex="1" connectable="0" parent="8wXhOOn2XCtuKgBWBWJ--15">
          <mxGeometry x="0.4238" y="1" relative="1" as="geometry">
            <mxPoint as="offset" />
          </mxGeometry>
        </mxCell>
        <mxCell id="8wXhOOn2XCtuKgBWBWJ--5" value="Сервис Банка" style="shape=umlLifeline;perimeter=lifelinePerimeter;whiteSpace=wrap;html=1;container=1;collapsible=0;recursiveResize=0;outlineConnect=0;rounded=1;shadow=0;comic=0;labelBackgroundColor=none;strokeWidth=1;fontFamily=Verdana;fontSize=12;align=center;" vertex="1" parent="1">
          <mxGeometry x="750" y="135" width="100" height="580" as="geometry" />
        </mxCell>
        <mxCell id="8wXhOOn2XCtuKgBWBWJ--6" value="" style="html=1;points=[];perimeter=orthogonalPerimeter;rounded=0;shadow=0;comic=0;labelBackgroundColor=none;strokeWidth=1;fontFamily=Verdana;fontSize=12;align=center;" vertex="1" parent="8wXhOOn2XCtuKgBWBWJ--5">
          <mxGeometry x="45" y="100" width="10" height="440" as="geometry" />
        </mxCell>
        <mxCell id="8wXhOOn2XCtuKgBWBWJ--7" value="" style="endArrow=classic;html=1;rounded=0;" edge="1" parent="1" source="7baba1c4bc27f4b0-8">
          <mxGeometry width="50" height="50" relative="1" as="geometry">
            <mxPoint x="320" y="305" as="sourcePoint" />
            <mxPoint x="450" y="255" as="targetPoint" />
            <Array as="points">
              <mxPoint x="400" y="255" />
            </Array>
          </mxGeometry>
        </mxCell>
        <mxCell id="8wXhOOn2XCtuKgBWBWJ--8" value="Выбор ресторана" style="edgeLabel;html=1;align=center;verticalAlign=middle;resizable=0;points=[];" vertex="1" connectable="0" parent="8wXhOOn2XCtuKgBWBWJ--7">
          <mxGeometry x="0.2056" y="4" relative="1" as="geometry">
            <mxPoint x="-12" as="offset" />
          </mxGeometry>
        </mxCell>
        <mxCell id="8wXhOOn2XCtuKgBWBWJ--9" value="" style="endArrow=classic;html=1;rounded=0;" edge="1" parent="1" source="8wXhOOn2XCtuKgBWBWJ--26" target="7baba1c4bc27f4b0-8">
          <mxGeometry width="50" height="50" relative="1" as="geometry">
            <mxPoint x="450" y="295" as="sourcePoint" />
            <mxPoint x="700" y="325" as="targetPoint" />
            <Array as="points">
              <mxPoint x="420" y="295" />
            </Array>
          </mxGeometry>
        </mxCell>
        <mxCell id="8wXhOOn2XCtuKgBWBWJ--10" value="Меню" style="edgeLabel;html=1;align=center;verticalAlign=middle;resizable=0;points=[];" vertex="1" connectable="0" parent="8wXhOOn2XCtuKgBWBWJ--9">
          <mxGeometry x="-0.4028" relative="1" as="geometry">
            <mxPoint x="16" as="offset" />
          </mxGeometry>
        </mxCell>
        <mxCell id="8wXhOOn2XCtuKgBWBWJ--11" value="" style="endArrow=classic;html=1;rounded=0;" edge="1" parent="1" source="7baba1c4bc27f4b0-8">
          <mxGeometry width="50" height="50" relative="1" as="geometry">
            <mxPoint x="650" y="375" as="sourcePoint" />
            <mxPoint x="450" y="325" as="targetPoint" />
          </mxGeometry>
        </mxCell>
        <mxCell id="8wXhOOn2XCtuKgBWBWJ--12" value="Выбор блюд" style="edgeLabel;html=1;align=center;verticalAlign=middle;resizable=0;points=[];" vertex="1" connectable="0" parent="8wXhOOn2XCtuKgBWBWJ--11">
          <mxGeometry x="0.4238" y="1" relative="1" as="geometry">
            <mxPoint x="-30" as="offset" />
          </mxGeometry>
        </mxCell>
        <mxCell id="8wXhOOn2XCtuKgBWBWJ--13" value="" style="endArrow=classic;html=1;rounded=0;" edge="1" parent="1" source="8wXhOOn2XCtuKgBWBWJ--26" target="7baba1c4bc27f4b0-8">
          <mxGeometry width="50" height="50" relative="1" as="geometry">
            <mxPoint x="650" y="495" as="sourcePoint" />
            <mxPoint x="700" y="445" as="targetPoint" />
            <Array as="points">
              <mxPoint x="350" y="355" />
            </Array>
          </mxGeometry>
        </mxCell>
        <mxCell id="8wXhOOn2XCtuKgBWBWJ--14" value="Состав" style="edgeLabel;html=1;align=center;verticalAlign=middle;resizable=0;points=[];" vertex="1" connectable="0" parent="8wXhOOn2XCtuKgBWBWJ--13">
          <mxGeometry x="-0.2722" y="4" relative="1" as="geometry">
            <mxPoint x="28" as="offset" />
          </mxGeometry>
        </mxCell>
        <mxCell id="8wXhOOn2XCtuKgBWBWJ--18" value="" style="endArrow=classic;html=1;rounded=0;" edge="1" parent="1" source="7baba1c4bc27f4b0-8" target="8wXhOOn2XCtuKgBWBWJ--5">
          <mxGeometry width="50" height="50" relative="1" as="geometry">
            <mxPoint x="650" y="495" as="sourcePoint" />
            <mxPoint x="630" y="445" as="targetPoint" />
            <Array as="points">
              <mxPoint x="490" y="495" />
            </Array>
          </mxGeometry>
        </mxCell>
        <mxCell id="8wXhOOn2XCtuKgBWBWJ--19" value="Оплата" style="edgeLabel;html=1;align=center;verticalAlign=middle;resizable=0;points=[];" vertex="1" connectable="0" parent="8wXhOOn2XCtuKgBWBWJ--18">
          <mxGeometry x="0.1789" y="-1" relative="1" as="geometry">
            <mxPoint x="124" as="offset" />
          </mxGeometry>
        </mxCell>
        <mxCell id="8wXhOOn2XCtuKgBWBWJ--22" value="" style="endArrow=classic;html=1;rounded=0;" edge="1" parent="1" source="7baba1c4bc27f4b0-8" target="8wXhOOn2XCtuKgBWBWJ--2">
          <mxGeometry width="50" height="50" relative="1" as="geometry">
            <mxPoint x="650" y="495" as="sourcePoint" />
            <mxPoint x="700" y="445" as="targetPoint" />
            <Array as="points">
              <mxPoint x="420" y="445" />
            </Array>
          </mxGeometry>
        </mxCell>
        <mxCell id="8wXhOOn2XCtuKgBWBWJ--23" value="Выбор доставки" style="edgeLabel;html=1;align=center;verticalAlign=middle;resizable=0;points=[];" vertex="1" connectable="0" parent="8wXhOOn2XCtuKgBWBWJ--22">
          <mxGeometry x="-0.0028" y="-1" relative="1" as="geometry">
            <mxPoint as="offset" />
          </mxGeometry>
        </mxCell>
        <mxCell id="8wXhOOn2XCtuKgBWBWJ--24" value="" style="endArrow=classic;html=1;rounded=0;entryX=0.9;entryY=0.695;entryDx=0;entryDy=0;entryPerimeter=0;" edge="1" parent="1" source="8wXhOOn2XCtuKgBWBWJ--6" target="7baba1c4bc27f4b0-9">
          <mxGeometry width="50" height="50" relative="1" as="geometry">
            <mxPoint x="650" y="495" as="sourcePoint" />
            <mxPoint x="700" y="445" as="targetPoint" />
          </mxGeometry>
        </mxCell>
        <mxCell id="8wXhOOn2XCtuKgBWBWJ--25" value="Подтсверждение" style="edgeLabel;html=1;align=center;verticalAlign=middle;resizable=0;points=[];" vertex="1" connectable="0" parent="8wXhOOn2XCtuKgBWBWJ--24">
          <mxGeometry x="-0.4701" y="-1" relative="1" as="geometry">
            <mxPoint x="50" as="offset" />
          </mxGeometry>
        </mxCell>
        <mxCell id="8wXhOOn2XCtuKgBWBWJ--26" value="Ресторан" style="shape=umlLifeline;perimeter=lifelinePerimeter;whiteSpace=wrap;html=1;container=1;collapsible=0;recursiveResize=0;outlineConnect=0;rounded=1;shadow=0;comic=0;labelBackgroundColor=none;strokeWidth=1;fontFamily=Verdana;fontSize=12;align=center;" vertex="1" parent="1">
          <mxGeometry x="580" y="135" width="100" height="580" as="geometry" />
        </mxCell>
        <mxCell id="8wXhOOn2XCtuKgBWBWJ--27" value="" style="html=1;points=[];perimeter=orthogonalPerimeter;rounded=0;shadow=0;comic=0;labelBackgroundColor=none;strokeWidth=1;fontFamily=Verdana;fontSize=12;align=center;" vertex="1" parent="8wXhOOn2XCtuKgBWBWJ--26">
          <mxGeometry x="45" y="100" width="10" height="440" as="geometry" />
        </mxCell>
        <mxCell id="8wXhOOn2XCtuKgBWBWJ--28" value="Диаграмма последовательности" style="text;html=1;strokeColor=none;fillColor=none;align=center;verticalAlign=middle;whiteSpace=wrap;rounded=0;" vertex="1" parent="1">
          <mxGeometry x="310" y="40" width="430" height="30" as="geometry" />
        </mxCell>
      </root>
    </mxGraphModel>
  </diagram>
</mxfile>
